<?xml version="1.0" standalone="no"?>
<!DOCTYPE svg PUBLIC "-//W3C//DTD SVG 20010904//EN"
 "http://www.w3.org/TR/2001/REC-SVG-20010904/DTD/svg10.dtd">
<svg version="1.0" xmlns="http://www.w3.org/2000/svg"
 width="700.000000pt" height="700.000000pt" viewBox="0 0 700.000000 700.000000"
 preserveAspectRatio="xMidYMid meet">
<metadata>
Created by potrace 1.11, written by Peter Selinger 2001-2013
</metadata>
<g transform="translate(0.000000,700.000000) scale(0.100000,-0.100000)"
fill="#000000" stroke="none">
<path d="M599 6813 c-208 -42 -373 -210 -412 -418 -32 -167 21 -338 140 -460
88 -89 167 -129 296 -150 68 -11 98 -11 167 -1 84 12 207 77 278 146 108 104
170 280 152 426 -16 127 -64 226 -154 316 -121 121 -301 175 -467 141z"/>
<path d="M2740 5768 c-101 -17 -208 -96 -250 -184 -44 -95 -50 -175 -19 -267
39 -116 122 -194 241 -227 162 -44 321 29 401 185 28 54 31 69 31 150 0 79 -3
97 -27 145 -35 69 -51 88 -109 132 -77 59 -172 82 -268 66z"/>
<path d="M5371 5768 c-168 -25 -299 -179 -295 -348 5 -210 197 -372 398 -338
62 11 64 11 101 28 85 39 170 146 191 240 10 47 7 137 -7 180 -20 60 -76 138
-126 174 -80 59 -162 79 -262 64z"/>
<path d="M6209 3487 c-103 -29 -179 -96 -228 -197 -22 -46 -26 -69 -26 -140 1
-98 25 -164 89 -237 102 -117 299 -144 436 -60 112 69 169 175 166 309 -4 178
-143 322 -323 334 -40 2 -87 -2 -114 -9z"/>
<path d="M3278 3324 c-2 -1 -19 -5 -38 -8 -102 -16 -198 -65 -276 -141 -112
-108 -167 -245 -159 -398 7 -147 59 -258 165 -358 207 -195 525 -188 725 15
97 98 145 209 150 346 7 152 -45 283 -153 389 -85 84 -181 134 -283 147 -49 6
-128 11 -131 8z"/>
<path d="M5995 1550 c-175 -48 -306 -172 -371 -352 -39 -108 -20 -291 44 -410
60 -112 196 -217 327 -252 67 -17 180 -20 241 -5 241 58 405 260 410 504 3
149 -55 287 -163 390 -53 50 -153 106 -223 125 -69 19 -197 19 -265 0z"/>
<path d="M3388 1030 c-101 -38 -166 -99 -210 -196 -34 -74 -32 -199 4 -276 34
-73 103 -142 176 -176 48 -22 71 -27 142 -26 73 0 94 4 144 28 73 36 117 74
152 133 137 234 -17 520 -285 528 -54 2 -90 -2 -123 -15z"/>
</g>
</svg>
